Coordinates
version=1
nRows=8
nColumns=40
inDegrees=yes

Units are S.I. units (second, meters, Newtons, ...)
If the header above contains a line with 'inDegrees', this indicates whether rotational values are in degrees (yes) or radians (no).

endheader
time	pelvis_tilt	pelvis_list	pelvis_rotation	pelvis_tx	pelvis_ty	pelvis_tz	hip_flexion_r	hip_adduction_r	hip_rotation_r	knee_angle_r	knee_angle_r_beta	ankle_angle_r	subtalar_angle_r	mtp_angle_r	hip_flexion_l	hip_adduction_l	hip_rotation_l	knee_angle_l	knee_angle_l_beta	ankle_angle_l	subtalar_angle_l	mtp_angle_l	lumbar_extension	lumbar_bending	lumbar_rotation	arm_flex_r	arm_add_r	arm_rot_r	elbow_flex_r	pro_sup_r	wrist_flex_r	wrist_dev_r	arm_flex_l	arm_add_l	arm_rot_l	elbow_flex_l	pro_sup_l	wrist_flex_l	wrist_dev_l
      3.71000000	    -32.92899556	      2.18285694	     -2.78714490	     -0.44554032	      0.45371354	     -0.92857959	    119.73980122	    -22.40801258	      6.46426888	    118.61396953	      2.07020431	     36.15197534	      0.00000000	      0.00000000	    118.75017758	    -28.87783348	      7.85600671	    120.07385854	      2.09568418	     35.37895688	      0.00000000	      0.00000000	    -33.82173427	     -3.65211051	    -11.56378986	     16.28212598	    -55.31900310	     83.06065383	    103.69897276	     87.89942997	      0.00000000	      0.00000000	    -29.10617469	    -49.19913414	     38.28138478	     97.69899494	     87.88928678	      0.00000000	      0.00000000
      3.71500000	    -32.97469205	      2.17412653	     -2.83325195	     -0.44497304	      0.45362217	     -0.92853269	    119.73791890	    -22.40499163	      6.43346525	    118.66045717	      2.07101567	     36.16560471	      0.00000000	      0.00000000	    118.75267239	    -28.89400067	      7.92378930	    120.11474830	      2.09639784	     35.42028011	      0.00000000	      0.00000000	    -33.65074279	     -3.67248352	    -11.56795929	     16.29360132	    -55.25798549	     83.06266775	    103.67507123	     87.89647543	      0.00000000	      0.00000000	    -29.05202235	    -49.22191709	     38.26465519	     97.65384395	     87.87679373	      0.00000000	      0.00000000
      3.72000000	    -33.01151157	      2.18342171	     -2.91752832	     -0.44418981	      0.45364443	     -0.92834665	    119.72511300	    -22.39301847	      6.37260028	    118.72420470	      2.07212827	     36.19150425	      0.00000000	      0.00000000	    118.71170629	    -28.91443442	      8.04576982	    120.14368829	      2.09690294	     35.45859286	      0.00000000	      0.00000000	    -33.46675746	     -3.74280149	    -11.55932757	     16.29665046	    -55.18905713	     83.07099392	    103.63425717	     87.89459701	      0.00000000	      0.00000000	    -29.03320913	    -49.21120825	     38.28053404	     97.60214695	     87.87312812	      0.00000000	      0.00000000
      3.72500000	    -33.11121767	      2.20708513	     -3.01396654	     -0.44364874	      0.45393213	     -0.92810794	    119.72307522	    -22.27711513	      6.28251494	    118.66395469	      2.07107671	     36.15128751	      0.00000000	      0.00000000	    118.69422122	    -28.96935193	      8.12341245	    120.11783390	      2.09645169	     35.52757254	      0.00000000	      0.00000000	    -33.23002303	     -3.84470805	    -11.55916536	     16.31305336	    -55.07143838	     83.06332987	    103.55576051	     87.89038672	      0.00000000	      0.00000000	    -29.01419090	    -49.23162758	     38.31219156	     97.50778984	     87.86988944	      0.00000000	      0.00000000
      3.73000000	    -33.26973035	      1.64073739	     -1.42789236	     -0.44311418	      0.45464164	     -0.93189599	    119.74384418	    -24.21966254	      6.66124498	    118.64292971	      2.07070976	     36.34932693	      0.00000000	      0.00000000	    118.51568870	    -26.85381745	      7.69929449	    119.84781870	      2.09173904	     35.73462299	      0.00000000	      0.00000000	    -33.04101737	     -2.30162365	    -12.59351261	     16.50347962	    -55.22793062	     83.14142687	    103.38191256	     87.88940022	      0.00000000	      0.00000000	    -28.46757584	    -48.88610168	     38.82861008	     97.09777095	     87.86924537	      0.00000000	      0.00000000
      3.73500000	    -33.53280279	      1.88588053	     -2.47672859	     -0.44276527	      0.45503302	     -0.92952253	    119.72977027	    -22.85805229	      6.28447319	    118.41102216	      2.06666221	     36.25194621	      0.00000000	      0.00000000	    118.76892296	    -28.03768801	      8.10505115	    119.82073909	      2.09126641	     35.88106713	      0.00000000	      0.00000000	    -32.50314399	     -3.20126005	    -11.85936048	     16.54506452	    -54.92031589	     83.24428734	    103.15340435	     87.89061440	      0.00000000	      0.00000000	    -28.39319463	    -49.06460486	     38.95872097	     96.99670661	     87.86024410	      0.00000000	      0.00000000
      3.74000000	    -33.46036227	      2.47729104	     -2.81823142	     -0.44135702	      0.45609238	     -0.92930783	    119.72119930	    -22.35115037	      6.72362292	    118.33803676	      2.06538837	     36.26633734	      0.00000000	      0.00000000	    118.20780912	    -28.58935782	      7.59744525	    119.88508048	      2.09238938	     35.95010443	      0.00000000	      0.00000000	    -32.36294696	     -3.93924904	    -11.92825809	     16.48557487	    -54.65899566	     83.19406070	    102.87566041	     87.87964220	      0.00000000	      0.00000000	    -28.28106392	    -49.04215736	     39.09017219	     96.72496029	     87.85785523	      0.00000000	      0.00000000
      3.74500000	    -33.76931086	      2.46079274	     -3.29641017	     -0.44116276	      0.45687756	     -0.92828124	    119.71632368	    -21.67759337	      6.43613182	    118.16227340	      2.06232072	     36.24326334	      0.00000000	      0.00000000	    118.45928885	    -28.97755629	      7.93913110	    119.74701210	      2.08997963	     36.07076453	      0.00000000	      0.00000000	    -31.81398679	     -4.21520841	    -11.49454232	     16.45555457	    -54.55019290	     83.16982064	    102.77643563	     87.88091063	      0.00000000	      0.00000000	    -28.19050518	    -49.08948476	     39.32023341	     96.67894790	     87.88662346	      0.00000000	      0.00000000
